<?xml version="1.0" standalone="no"?>
<!DOCTYPE svg PUBLIC "-//W3C//DTD SVG 20010904//EN"
 "http://www.w3.org/TR/2001/REC-SVG-20010904/DTD/svg10.dtd">
<svg version="1.0" xmlns="http://www.w3.org/2000/svg"
 width="200.000000pt" height="200.000000pt" viewBox="0 0 200.000000 200.000000"
 preserveAspectRatio="xMidYMid meet">

<g transform="translate(0.000000,200.000000) scale(0.100000,-0.100000)"
fill="#000000" stroke="none">
<path d="M924 1295 c-18 -46 34 -97 76 -75 26 14 42 46 36 68 -8 24 -104 30
-112 7z"/>
<path d="M1087 1280 c-5 -24 14 -70 33 -80 52 -28 110 5 110 63 l0 32 -70 0
c-54 0 -70 -3 -73 -15z"/>
<path d="M774 1261 c-16 -17 22 -71 50 -71 22 0 46 29 46 54 0 20 -5 23 -46
22 -25 -1 -48 -3 -50 -5z"/>
<path d="M522 1084 c8 -40 68 -44 68 -4 0 16 -6 20 -36 20 -28 0 -35 -4 -32
-16z"/>
</g>
</svg>
